<?xml version="1.0" encoding="UTF-8" standalone="no"?>
<!-- Created with Inkscape (http://www.inkscape.org/) -->

<svg
   xmlns:dc="http://purl.org/dc/elements/1.1/"
   xmlns:cc="http://creativecommons.org/ns#"
   xmlns:rdf="http://www.w3.org/1999/02/22-rdf-syntax-ns#"
   xmlns:svg="http://www.w3.org/2000/svg"
   xmlns="http://www.w3.org/2000/svg"
   xmlns:sodipodi="http://sodipodi.sourceforge.net/DTD/sodipodi-0.dtd"
   xmlns:inkscape="http://www.inkscape.org/namespaces/inkscape"
   width="135.57349mm"
   height="41.01318mm"
   viewBox="0 0 480.37849 145.32229"
   id="svg4245"
   version="1.1"
   inkscape:version="0.91 r13725"
   sodipodi:docname="logo_white.svg">
  <defs
     id="defs4247" />
  <sodipodi:namedview
     id="base"
     pagecolor="#ffffff"
     bordercolor="#666666"
     borderopacity="1.0"
     inkscape:pageopacity="0.0"
     inkscape:pageshadow="2"
     inkscape:zoom="0.35"
     inkscape:cx="-140.52503"
     inkscape:cy="-47.338845"
     inkscape:document-units="px"
     inkscape:current-layer="layer1"
     showgrid="false"
     fit-margin-top="0"
     fit-margin-left="0"
     fit-margin-right="0"
     fit-margin-bottom="0"
     inkscape:window-width="1920"
     inkscape:window-height="1058"
     inkscape:window-x="1912"
     inkscape:window-y="-8"
     inkscape:window-maximized="1" />
  <metadata
     id="metadata4250">
    <rdf:RDF>
      <cc:Work
         rdf:about="">
        <dc:format>image/svg+xml</dc:format>
        <dc:type
           rdf:resource="http://purl.org/dc/dcmitype/StillImage" />
        <dc:title></dc:title>
      </cc:Work>
    </rdf:RDF>
  </metadata>
  <g
     inkscape:label="Ebene 1"
     inkscape:groupmode="layer"
     id="layer1"
     transform="translate(108.76068,-339.70107)">
    <g
       style="font-style:normal;font-variant:normal;font-weight:300;font-stretch:normal;font-size:63.16051865px;line-height:125%;font-family:'Open Sans';-inkscape-font-specification:'Open Sans, Light';text-align:start;letter-spacing:0px;word-spacing:0px;writing-mode:lr-tb;text-anchor:start;fill:#ffffff;fill-opacity:1;stroke:none;stroke-width:1px;stroke-linecap:butt;stroke-linejoin:miter;stroke-opacity:1"
       id="text4711-1-4-9">
      <path
         d="m -68.915276,484.40656 -5.982979,0 -24.641238,-37.8408 -0.24672,0 q 0.493441,6.66146 0.493441,12.21267 l 0,25.62813 -4.841898,0 0,-45.08823 5.921302,0 24.579557,37.6866 0.246721,0 q -0.06168,-0.83268 -0.277561,-5.33533 -0.215881,-4.5335 -0.154201,-6.47643 l 0,-25.87484 4.903576,0 0,45.08823 z"
         style="font-style:normal;font-variant:normal;font-weight:normal;font-stretch:normal;font-family:'Open Sans';-inkscape-font-specification:'Open Sans';fill:#ffffff;fill-opacity:1"
         id="path4810"
         inkscape:connector-curvature="0" />
      <path
         d="m -28.175507,484.40656 -5.612897,-14.34065 -18.072297,0 -5.551218,14.34065 -5.304496,0 17.825576,-45.27327 4.410134,0 17.733055,45.27327 -5.427857,0 z m -7.247423,-19.05918 -5.242816,-13.97057 q -1.017723,-2.65225 -2.097127,-6.50726 -0.678482,2.96065 -1.942926,6.50726 l -5.304496,13.97057 14.587365,0 z"
         style="font-style:normal;font-variant:normal;font-weight:normal;font-stretch:normal;font-family:'Open Sans';-inkscape-font-specification:'Open Sans';fill:#ffffff;fill-opacity:1"
         id="path4812"
         inkscape:connector-curvature="0" />
      <path
         d="m -2.670747,484.40656 -5.2428165,0 0,-40.43137 -14.2789645,0 0,-4.65686 33.800746,0 0,4.65686 -14.278965,0 0,40.43137 z"
         style="font-style:normal;font-variant:normal;font-weight:normal;font-stretch:normal;font-family:'Open Sans';-inkscape-font-specification:'Open Sans';fill:#ffffff;fill-opacity:1"
         id="path4814"
         inkscape:connector-curvature="0" />
      <path
         d="m 52.409672,439.31833 0,29.17474 q 0,7.71002 -4.656855,12.12015 -4.656854,4.41014 -12.79864,4.41014 -8.141786,0 -12.6136,-4.44098 -4.440974,-4.44097 -4.440974,-12.21268 l 0,-29.05137 5.242817,0 0,29.42146 q 0,5.64373 3.08401,8.66606 3.084009,3.02233 9.066988,3.02233 5.705418,0 8.789428,-3.02233 3.084009,-3.05317 3.084009,-8.72774 l 0,-29.35978 5.242817,0 z"
         style="font-style:normal;font-variant:normal;font-weight:normal;font-stretch:normal;font-family:'Open Sans';-inkscape-font-specification:'Open Sans';fill:#ffffff;fill-opacity:1"
         id="path4816"
         inkscape:connector-curvature="0" />
      <path
         d="m 69.618434,465.65578 0,18.75078 -5.242817,0 0,-45.08823 12.366879,0 q 8.295986,0 12.243519,3.17653 3.978372,3.17653 3.978372,9.56043 0,8.94363 -9.066988,12.08932 l 12.243518,20.26195 -6.198859,0 -10.917395,-18.75078 -9.406229,0 z m 0,-4.50266 7.185742,0 q 5.551218,0 8.141786,-2.18964 2.590568,-2.22049 2.590568,-6.63063 0,-4.47181 -2.652248,-6.44558 -2.621408,-1.97376 -8.450187,-1.97376 l -6.815661,0 0,17.23961 z"
         style="font-style:normal;font-variant:normal;font-weight:normal;font-stretch:normal;font-family:'Open Sans';-inkscape-font-specification:'Open Sans';fill:#ffffff;fill-opacity:1"
         id="path4818"
         inkscape:connector-curvature="0" />
      <path
         d="m 131.82292,484.40656 -5.6129,-14.34065 -18.07229,0 -5.55122,14.34065 -5.304497,0 17.825577,-45.27327 4.41013,0 17.73306,45.27327 -5.42786,0 z m -7.24742,-19.05918 -5.24282,-13.97057 q -1.01772,-2.65225 -2.09712,-6.50726 -0.67849,2.96065 -1.94293,6.50726 l -5.3045,13.97057 14.58737,0 z"
         style="font-style:normal;font-variant:normal;font-weight:normal;font-stretch:normal;font-family:'Open Sans';-inkscape-font-specification:'Open Sans';fill:#ffffff;fill-opacity:1"
         id="path4820"
         inkscape:connector-curvature="0" />
      <path
         d="m 143.44964,484.40656 0,-45.08823 5.24281,0 0,40.33885 19.89187,0 0,4.74938 -25.13468,0 z"
         style="font-style:normal;font-variant:normal;font-weight:normal;font-stretch:normal;font-family:'Open Sans';-inkscape-font-specification:'Open Sans';fill:#ffffff;fill-opacity:1"
         id="path4822"
         inkscape:connector-curvature="0" />
    </g>
    <g
       style="font-style:normal;font-variant:normal;font-weight:300;font-stretch:normal;font-size:63.16051865px;line-height:125%;font-family:'Open Sans';-inkscape-font-specification:'Open Sans, Light';text-align:start;letter-spacing:0px;word-spacing:0px;writing-mode:lr-tb;text-anchor:start;fill:#ffffff;fill-opacity:1;stroke:none;stroke-width:1px;stroke-linecap:butt;stroke-linejoin:miter;stroke-opacity:1"
       id="text4732-2-8-5">
      <path
         d="m -68.020914,427.92596 -2.590568,0 -9.899671,-34.78763 q -1.233604,-4.28677 -1.850406,-7.03154 -0.493441,2.68309 -1.418644,6.16802 -0.894363,3.48493 -9.930511,35.65115 l -2.652249,0 -12.397717,-45.08822 3.29989,0 7.895064,29.05137 q 0.462601,1.75789 0.863522,3.26905 0.400922,1.48033 0.709322,2.80645 0.339242,1.29529 0.585962,2.52889 0.277561,1.20276 0.493442,2.43637 0.740162,-4.19425 3.14569,-12.73696 l 7.710024,-27.35517 3.484931,0 9.036148,31.39522 q 1.572845,5.42786 2.251327,8.75859 0.400922,-2.22049 1.017724,-4.71854 0.647642,-2.49804 9.52959,-35.43527 l 3.17653,0 -12.4594,45.08822 z"
         id="path4825"
         inkscape:connector-curvature="0" />
      <path
         d="m -47.573928,427.92596 0,-45.08822 3.145689,0 0,45.08822 -3.145689,0 z"
         id="path4827"
         inkscape:connector-curvature="0" />
      <path
         d="m -1.3446266,427.92596 -3.8550121,0 -17.3012943,-23.80855 -6.013819,5.3045 0,18.50405 -3.14569,0 0,-45.08822 3.14569,0 0,23.43848 4.996096,-4.9961 17.6713752,-18.44238 4.0092126,0 -18.4732178,19.05918 18.9666594,26.02904 z"
         id="path4829"
         inkscape:connector-curvature="0" />
      <path
         d="m 5.1009564,427.92596 0,-45.08822 3.1456898,0 0,45.08822 -3.1456898,0 z"
         id="path4831"
         inkscape:connector-curvature="0" />
      <path
         d="m 55.246954,404.95009 q 0,11.34916 -5.952138,17.17794 -5.952139,5.79793 -17.486335,5.79793 l -10.794034,0 0,-45.08822 12.181838,0 q 10.794034,0 16.406932,5.64374 5.643737,5.64374 5.643737,16.46861 z m -3.42325,0.12336 q 0,-9.68379 -4.934416,-14.55652 -4.903575,-4.90358 -14.433165,-4.90358 l -8.295986,0 0,39.53701 7.463303,0 q 20.200264,0 20.200264,-20.07691 z"
         id="path4833"
         inkscape:connector-curvature="0" />
      <path
         d="m 87.382331,412.01247 -18.319018,0 -6.291379,15.91349 -3.484931,0 18.133977,-45.27326 2.004606,0 17.763896,45.27326 -3.546611,0 -6.26054,-15.91349 z m -17.177934,-2.83728 16.129371,0 -6.13718,-16.25274 q -0.771002,-1.91208 -1.850405,-5.30449 -0.832683,2.96065 -1.819566,5.36617 l -6.32222,16.19106 z"
         id="path4835"
         inkscape:connector-curvature="0" />
      <path
         d="m 115.29262,427.92596 -3.17653,0 0,-42.12757 -14.649043,0 0,-2.96065 32.474623,0 0,2.96065 -14.64905,0 0,42.12757 z"
         id="path4837"
         inkscape:connector-curvature="0" />
      <path
         d="m 158.31457,412.01247 -18.31902,0 -6.29138,15.91349 -3.48493,0 18.13398,-45.27326 2.0046,0 17.7639,45.27326 -3.54661,0 -6.26054,-15.91349 z m -17.17794,-2.83728 16.12937,0 -6.13718,-16.25274 q -0.771,-1.91208 -1.8504,-5.30449 -0.83268,2.96065 -1.81957,5.36617 l -6.32222,16.19106 z"
         id="path4839"
         inkscape:connector-curvature="0" />
    </g>
    <path
       style="opacity:1;fill:#ffffff;fill-opacity:0.81849311;stroke:none;stroke-width:0.63499999;stroke-miterlimit:4;stroke-dasharray:none;stroke-dashoffset:0;stroke-opacity:1"
       d="m 273.94053,339.70107 a 97.676476,69.924223 0 0 0 -97.6757,69.9239 97.676476,69.924223 0 0 0 10.1844,31.0098 c -6.9728,12.3566 -20.4162,23.0436 -30.8631,28.6818 17.6401,0.8707 38.0146,-2.0572 52.6184,-8.0855 a 97.676476,69.924223 0 0 0 65.736,18.3177 97.676476,69.924223 0 0 0 97.6773,-69.9238 97.676476,69.924223 0 0 0 -97.6773,-69.9239 z"
       id="path4807-9-1-1"
       inkscape:connector-curvature="0" />
    <path
       style="fill:#19854f;fill-opacity:0.78082192"
       d="m 340.13923,369.47667 -4.9042,0 0,81.725 4.9042,0 0,-81.725 z m -9.8066,0 -14.7105,0 0,81.725 14.7105,0 0,-81.725 z m -19.6148,0 -14.7106,0 0,81.725 14.7106,0 0,-81.725 z m -19.6148,0 -4.9023,0 0,81.725 4.9023,0 0,-81.725 z m -9.8064,0 -4.9043,0 0,81.725 4.9043,0 0,-81.725 z m -9.8065,0 -14.7125,0 0,81.725 14.7125,0 0,-81.725 z m -19.6149,0 -4.9042,0 0,81.725 4.9042,0 0,-81.725 z m -9.8083,0 -14.7106,0 0,81.725 14.7106,0 0,-81.725 z m -19.613,0 -4.9041,0 0,81.725 4.9041,0 0,-81.725 z m -9.8083,0 -4.9023,0 0,81.725 4.9023,0 0,-81.725 z"
       id="path4-1-0-0-5"
       inkscape:connector-curvature="0" />
  </g>
</svg>
