<?xml version="1.0" encoding="UTF-8" standalone="no"?>
<!-- Created with Inkscape (http://www.inkscape.org/) -->

<svg
   xmlns:dc="http://purl.org/dc/elements/1.1/"
   xmlns:cc="http://creativecommons.org/ns#"
   xmlns:rdf="http://www.w3.org/1999/02/22-rdf-syntax-ns#"
   xmlns:svg="http://www.w3.org/2000/svg"
   xmlns="http://www.w3.org/2000/svg"
   xmlns:sodipodi="http://sodipodi.sourceforge.net/DTD/sodipodi-0.dtd"
   xmlns:inkscape="http://www.inkscape.org/namespaces/inkscape"
   width="135.5735mm"
   height="41.013142mm"
   viewBox="0 0 480.37855 145.32215"
   id="svg5323"
   version="1.1"
   inkscape:version="0.91 r13725"
   sodipodi:docname="logo.svg">
  <defs
     id="defs5325" />
  <sodipodi:namedview
     id="base"
     pagecolor="#ffffff"
     bordercolor="#666666"
     borderopacity="1.0"
     inkscape:pageopacity="0.0"
     inkscape:pageshadow="2"
     inkscape:zoom="0.98994949"
     inkscape:cx="-116.4663"
     inkscape:cy="-75.735131"
     inkscape:document-units="px"
     inkscape:current-layer="layer1"
     showgrid="false"
     fit-margin-top="0"
     fit-margin-left="0"
     fit-margin-right="0"
     fit-margin-bottom="0"
     inkscape:window-width="1920"
     inkscape:window-height="1058"
     inkscape:window-x="1912"
     inkscape:window-y="-8"
     inkscape:window-maximized="1" />
  <metadata
     id="metadata5328">
    <rdf:RDF>
      <cc:Work
         rdf:about="">
        <dc:format>image/svg+xml</dc:format>
        <dc:type
           rdf:resource="http://purl.org/dc/dcmitype/StillImage" />
        <dc:title></dc:title>
      </cc:Work>
    </rdf:RDF>
  </metadata>
  <g
     inkscape:label="Ebene 1"
     inkscape:groupmode="layer"
     id="layer1"
     transform="translate(-288.44351,-206.38553)">
    <text
       xml:space="preserve"
       style="font-style:normal;font-variant:normal;font-weight:300;font-stretch:normal;font-size:63.16051865px;line-height:125%;font-family:'Open Sans';-inkscape-font-specification:'Open Sans, Light';text-align:start;letter-spacing:0px;word-spacing:0px;writing-mode:lr-tb;text-anchor:start;fill:#000000;fill-opacity:1;stroke:none;stroke-width:1px;stroke-linecap:butt;stroke-linejoin:miter;stroke-opacity:1"
       x="286.87067"
       y="351.09088"
       id="text4711-1"
       sodipodi:linespacing="125%"><tspan
         sodipodi:role="line"
         x="286.87067"
         y="351.09088"
         id="tspan4715-1"
         style="font-style:normal;font-variant:normal;font-weight:normal;font-stretch:normal;font-family:'Open Sans';-inkscape-font-specification:'Open Sans'">NATURAL</tspan></text>
    <text
       sodipodi:linespacing="125%"
       id="text4732-2"
       y="294.61026"
       x="286.87067"
       style="font-style:normal;font-variant:normal;font-weight:300;font-stretch:normal;font-size:63.16051865px;line-height:125%;font-family:'Open Sans';-inkscape-font-specification:'Open Sans, Light';text-align:start;letter-spacing:0px;word-spacing:0px;writing-mode:lr-tb;text-anchor:start;fill:#000000;fill-opacity:1;stroke:none;stroke-width:1px;stroke-linecap:butt;stroke-linejoin:miter;stroke-opacity:1"
       xml:space="preserve"><tspan
         id="tspan4736-0"
         y="294.61026"
         x="286.87067"
         sodipodi:role="line">WIKIDATA</tspan></text>
    <path
       style="opacity:1;fill:#59a780;fill-opacity:1;stroke:none;stroke-width:0.63499999;stroke-miterlimit:4;stroke-dasharray:none;stroke-dashoffset:0;stroke-opacity:1"
       d="m 671.14474,206.38553 a 97.676476,69.924223 0 0 0 -97.67572,69.92381 97.676476,69.924223 0 0 0 10.18441,31.00983 c -6.97277,12.35659 -20.4162,23.04363 -30.86309,28.6818 17.64008,0.87076 38.01455,-2.05714 52.6184,-8.08551 a 97.676476,69.924223 0 0 0 65.736,18.3177 97.676476,69.924223 0 0 0 97.67734,-69.92382 97.676476,69.924223 0 0 0 -97.67734,-69.92381 z"
       id="path4807-9"
       inkscape:connector-curvature="0" />
    <path
       style="fill:#e2f0e9;fill-opacity:1"
       d="m 737.3434,236.16111 -4.90418,0 0,81.72494 4.90418,0 0,-81.72494 z m -9.80652,0 -14.71058,0 0,81.72494 14.71058,0 0,-81.72494 z m -19.61487,0 -14.71058,0 0,81.72494 14.71058,0 0,-81.72494 z m -19.61476,0 -4.90234,0 0,81.72494 4.90234,0 0,-81.72494 z m -9.80641,0 -4.90429,0 0,81.72494 4.90429,0 0,-81.72494 z m -9.80651,0 -14.71254,0 0,81.72494 14.71254,0 0,-81.72494 z m -19.61487,0 -4.90418,0 0,81.72494 4.90418,0 0,-81.72494 z m -9.80836,0 -14.71059,0 0,81.72494 14.71059,0 0,-81.72494 z m -19.61292,0 -4.90418,0 0,81.72494 4.90418,0 0,-81.72494 z m -9.80836,0 -4.90233,0 0,81.72494 4.90233,0 0,-81.72494 z"
       id="path4-1-0"
       inkscape:connector-curvature="0" />
  </g>
</svg>
