<?xml version="1.0" encoding="UTF-8" standalone="no"?>
<svg
   xmlns:dc="http://purl.org/dc/elements/1.1/"
   xmlns:cc="http://creativecommons.org/ns#"
   xmlns:rdf="http://www.w3.org/1999/02/22-rdf-syntax-ns#"
   xmlns:svg="http://www.w3.org/2000/svg"
   xmlns="http://www.w3.org/2000/svg"
   version="1.1"
   id="svg5323"
   viewBox="0 0 480.37855 145.32215"
   height="41.013142mm"
   width="135.5735mm">
  <defs
     id="defs5325" />
  <metadata
     id="metadata5328">
    <rdf:RDF>
      <cc:Work
         rdf:about="">
        <dc:format>image/svg+xml</dc:format>
        <dc:type
           rdf:resource="http://purl.org/dc/dcmitype/StillImage" />
        <dc:title></dc:title>
      </cc:Work>
    </rdf:RDF>
  </metadata>
  <g
     transform="translate(-288.44351,-206.38553)"
     id="layer1">
    <g
       id="text4711-1"
       style="font-style:normal;font-variant:normal;font-weight:300;font-stretch:normal;font-size:63.16051865px;line-height:125%;font-family:'Open Sans';-inkscape-font-specification:'Open Sans, Light';text-align:start;letter-spacing:0px;word-spacing:0px;writing-mode:lr-tb;text-anchor:start;fill:#000000;fill-opacity:1;stroke:none;stroke-width:1px;stroke-linecap:butt;stroke-linejoin:miter;stroke-opacity:1">
      <path
         id="path4140"
         style="font-style:normal;font-variant:normal;font-weight:normal;font-stretch:normal;font-family:'Open Sans';-inkscape-font-specification:'Open Sans'"
         d="m 328.28892,351.09088 -5.98298,0 -24.64124,-37.8408 -0.24672,0 q 0.49344,6.66146 0.49344,12.21268 l 0,25.62812 -4.84189,0 0,-45.08822 5.92129,0 24.57956,37.6866 0.24672,0 q -0.0617,-0.83268 -0.27756,-5.33534 -0.21588,-4.53349 -0.1542,-6.47642 l 0,-25.87484 4.90358,0 0,45.08822 z" />
      <path
         id="path4142"
         style="font-style:normal;font-variant:normal;font-weight:normal;font-stretch:normal;font-family:'Open Sans';-inkscape-font-specification:'Open Sans'"
         d="m 369.02869,351.09088 -5.6129,-14.34064 -18.0723,0 -5.55122,14.34064 -5.30449,0 17.82557,-45.27326 4.41014,0 17.73305,45.27326 -5.42785,0 z m -7.24743,-19.05918 -5.24281,-13.97056 q -1.01773,-2.65225 -2.09713,-6.50726 -0.67848,2.96065 -1.94293,6.50726 l -5.30449,13.97056 14.58736,0 z" />
      <path
         id="path4144"
         style="font-style:normal;font-variant:normal;font-weight:normal;font-stretch:normal;font-family:'Open Sans';-inkscape-font-specification:'Open Sans'"
         d="m 394.53345,351.09088 -5.24282,0 0,-40.43137 -14.27897,0 0,-4.65685 33.80075,0 0,4.65685 -14.27896,0 0,40.43137 z" />
      <path
         id="path4146"
         style="font-style:normal;font-variant:normal;font-weight:normal;font-stretch:normal;font-family:'Open Sans';-inkscape-font-specification:'Open Sans'"
         d="m 449.61387,306.00266 0,29.17473 q 0,7.71003 -4.65686,12.12016 -4.65685,4.41013 -12.79864,4.41013 -8.14179,0 -12.6136,-4.44097 -4.44097,-4.44097 -4.44097,-12.21268 l 0,-29.05137 5.24281,0 0,29.42145 q 0,5.64374 3.08401,8.66607 3.08401,3.02233 9.06699,3.02233 5.70542,0 8.78943,-3.02233 3.08401,-3.05317 3.08401,-8.72775 l 0,-29.35977 5.24282,0 z" />
      <path
         id="path4148"
         style="font-style:normal;font-variant:normal;font-weight:normal;font-stretch:normal;font-family:'Open Sans';-inkscape-font-specification:'Open Sans'"
         d="m 466.82263,332.3401 0,18.75078 -5.24282,0 0,-45.08822 12.36688,0 q 8.29599,0 12.24352,3.17653 3.97837,3.17653 3.97837,9.56043 0,8.94363 -9.06699,12.08932 l 12.24352,20.26194 -6.19886,0 -10.91739,-18.75078 -9.40623,0 z m 0,-4.50265 7.18574,0 q 5.55122,0 8.14179,-2.18965 2.59056,-2.22049 2.59056,-6.63062 0,-4.47181 -2.65225,-6.44558 -2.6214,-1.97377 -8.45018,-1.97377 l -6.81566,0 0,17.23962 z" />
      <path
         id="path4150"
         style="font-style:normal;font-variant:normal;font-weight:normal;font-stretch:normal;font-family:'Open Sans';-inkscape-font-specification:'Open Sans'"
         d="m 529.02711,351.09088 -5.61289,-14.34064 -18.0723,0 -5.55122,14.34064 -5.30449,0 17.82557,-45.27326 4.41014,0 17.73305,45.27326 -5.42786,0 z m -7.24742,-19.05918 -5.24281,-13.97056 q -1.01773,-2.65225 -2.09713,-6.50726 -0.67848,2.96065 -1.94293,6.50726 l -5.30449,13.97056 14.58736,0 z" />
      <path
         id="path4152"
         style="font-style:normal;font-variant:normal;font-weight:normal;font-stretch:normal;font-family:'Open Sans';-inkscape-font-specification:'Open Sans'"
         d="m 540.65383,351.09088 0,-45.08822 5.24282,0 0,40.33885 19.89186,0 0,4.74937 -25.13468,0 z" />
    </g>
    <g
       id="text4732-2"
       style="font-style:normal;font-variant:normal;font-weight:300;font-stretch:normal;font-size:63.16051865px;line-height:125%;font-family:'Open Sans';-inkscape-font-specification:'Open Sans, Light';text-align:start;letter-spacing:0px;word-spacing:0px;writing-mode:lr-tb;text-anchor:start;fill:#000000;fill-opacity:1;stroke:none;stroke-width:1px;stroke-linecap:butt;stroke-linejoin:miter;stroke-opacity:1">
      <path
         id="path4155"
         style=""
         d="m 329.18328,294.61026 -2.59057,0 -9.89967,-34.78763 q -1.2336,-4.28677 -1.85041,-7.03154 -0.49344,2.68309 -1.41864,6.16802 -0.89436,3.48493 -9.93051,35.65115 l -2.65225,0 -12.39772,-45.08822 3.29989,0 7.89507,29.05137 q 0.4626,1.75789 0.86352,3.26905 0.40092,1.48032 0.70932,2.80645 0.33924,1.29528 0.58596,2.52889 0.27756,1.20276 0.49345,2.43636 0.74016,-4.19425 3.14568,-12.73696 l 7.71003,-27.35516 3.48493,0 9.03615,31.39522 q 1.57284,5.42785 2.25133,8.75858 0.40092,-2.22048 1.01772,-4.71853 0.64764,-2.49805 9.52959,-35.43527 l 3.17653,0 -12.4594,45.08822 z" />
      <path
         id="path4157"
         style=""
         d="m 349.63026,294.61026 0,-45.08822 3.14569,0 0,45.08822 -3.14569,0 z" />
      <path
         id="path4159"
         style=""
         d="m 395.85957,294.61026 -3.85502,0 -17.30129,-23.80855 -6.01382,5.30449 0,18.50406 -3.14569,0 0,-45.08822 3.14569,0 0,23.43847 4.9961,-4.99609 17.67137,-18.44238 4.00921,0 -18.47321,19.05918 18.96666,26.02904 z" />
      <path
         id="path4161"
         style=""
         d="m 402.30515,294.61026 0,-45.08822 3.14569,0 0,45.08822 -3.14569,0 z" />
      <path
         id="path4163"
         style=""
         d="m 452.45115,271.63439 q 0,11.34915 -5.95214,17.17793 -5.95214,5.79794 -17.48634,5.79794 l -10.79403,0 0,-45.08822 12.18184,0 q 10.79403,0 16.40693,5.64374 5.64374,5.64373 5.64374,16.46861 z m -3.42325,0.12336 q 0,-9.68379 -4.93442,-14.55653 -4.90357,-4.90357 -14.43316,-4.90357 l -8.29599,0 0,39.537 7.4633,0 q 20.20027,0 20.20027,-20.0769 z" />
      <path
         id="path4165"
         style=""
         d="m 484.58652,278.69677 -18.31901,0 -6.29138,15.91349 -3.48493,0 18.13397,-45.27326 2.00461,0 17.76389,45.27326 -3.54661,0 -6.26054,-15.91349 z m -17.17793,-2.83729 16.12937,0 -6.13718,-16.25273 q -0.771,-1.91209 -1.8504,-5.3045 -0.83269,2.96065 -1.81957,5.36618 l -6.32222,16.19105 z" />
      <path
         id="path4167"
         style=""
         d="m 512.49682,294.61026 -3.17653,0 0,-42.12757 -14.64905,0 0,-2.96065 32.47462,0 0,2.96065 -14.64904,0 0,42.12757 z" />
      <path
         id="path4169"
         style=""
         d="m 555.51876,278.69677 -18.31902,0 -6.29138,15.91349 -3.48493,0 18.13398,-45.27326 2.0046,0 17.7639,45.27326 -3.54661,0 -6.26054,-15.91349 z m -17.17793,-2.83729 16.12937,0 -6.13718,-16.25273 q -0.77101,-1.91209 -1.85041,-5.3045 -0.83268,2.96065 -1.81956,5.36618 l -6.32222,16.19105 z" />
    </g>
    <path
       id="path4807-9"
       d="m 671.14474,206.38553 a 97.676476,69.924223 0 0 0 -97.67572,69.92381 97.676476,69.924223 0 0 0 10.18441,31.00983 c -6.97277,12.35659 -20.4162,23.04363 -30.86309,28.6818 17.64008,0.87076 38.01455,-2.05714 52.6184,-8.08551 a 97.676476,69.924223 0 0 0 65.736,18.3177 97.676476,69.924223 0 0 0 97.67734,-69.92382 97.676476,69.924223 0 0 0 -97.67734,-69.92381 z"
       style="opacity:1;fill:#59a780;fill-opacity:1;stroke:none;stroke-width:0.63499999;stroke-miterlimit:4;stroke-dasharray:none;stroke-dashoffset:0;stroke-opacity:1" />
    <path
       id="path4-1-0"
       d="m 737.3434,236.16111 -4.90418,0 0,81.72494 4.90418,0 0,-81.72494 z m -9.80652,0 -14.71058,0 0,81.72494 14.71058,0 0,-81.72494 z m -19.61487,0 -14.71058,0 0,81.72494 14.71058,0 0,-81.72494 z m -19.61476,0 -4.90234,0 0,81.72494 4.90234,0 0,-81.72494 z m -9.80641,0 -4.90429,0 0,81.72494 4.90429,0 0,-81.72494 z m -9.80651,0 -14.71254,0 0,81.72494 14.71254,0 0,-81.72494 z m -19.61487,0 -4.90418,0 0,81.72494 4.90418,0 0,-81.72494 z m -9.80836,0 -14.71059,0 0,81.72494 14.71059,0 0,-81.72494 z m -19.61292,0 -4.90418,0 0,81.72494 4.90418,0 0,-81.72494 z m -9.80836,0 -4.90233,0 0,81.72494 4.90233,0 0,-81.72494 z"
       style="fill:#e2f0e9;fill-opacity:1" />
  </g>
</svg>
